HIERARCHY
ROOT hip
{
	OFFSET	0.00  0.00  0.00 
	CHANNELS 6 Xposition Yposition Zposition Xrotation Zrotation Yrotation
	JOINT abdomen
	{
		OFFSET	0.000000 0.000000 0.000000
		CHANNELS 3 Xrotation Zrotation Yrotation
		JOINT chest
		{
			OFFSET	0.000000 5.018152 -1.882228
			CHANNELS 3 Xrotation Zrotation Yrotation
			JOINT neckDummy
			{
				OFFSET	0.000000 8.316447 0.784897
				CHANNELS 3 Xrotation Yrotation Zrotation
				JOINT neck
				{
					OFFSET	0.000000 2.280413 -0.392801
					CHANNELS 3 Xrotation Zrotation Yrotation
					JOINT head
					{
						OFFSET	0.000000 3.496879 0.529469
						CHANNELS 3 Xrotation Zrotation Yrotation
						JOINT figureHair
						{
							OFFSET	0.000000 4.699570 0.720622
							CHANNELS 3 Zrotation Yrotation Xrotation
							End Site
							{
								OFFSET 0.000000 -6.419331 0.000000
							}
						}
					}
				}
			}
			JOINT lCollar
			{
				OFFSET	0.599237 8.316447 0.784897
				CHANNELS 3 Yrotation Zrotation Xrotation
				JOINT lShldr
				{
					OFFSET	6.421198 0.010146 -0.332128
					CHANNELS 3 Zrotation Yrotation Xrotation
					JOINT lForeArm
					{
						OFFSET	10.552783 0.025574 0.125508
						CHANNELS 3 Yrotation Zrotation Xrotation
						JOINT lHand
						{
							OFFSET	11.035963 0.319619 0.041520
							CHANNELS 3 Zrotation Yrotation Xrotation
							End Site
							{
								OFFSET 10.353753 0.000000 0.000000
							}
						}
					}
				}
			}
			JOINT rCollar
			{
				OFFSET	-0.599237 8.316447 0.784897
				CHANNELS 3 Yrotation Zrotation Xrotation
				JOINT rShldr
				{
					OFFSET	-6.421198 0.010146 -0.332128
					CHANNELS 3 Zrotation Yrotation Xrotation
					JOINT rForeArm
					{
						OFFSET	-10.552783 0.025574 0.125508
						CHANNELS 3 Yrotation Zrotation Xrotation
						JOINT rHand
						{
							OFFSET	-11.035963 0.319619 0.041520
							CHANNELS 3 Zrotation Yrotation Xrotation
							End Site
							{
								OFFSET -10.353753 0.000000 0.000000
							}
						}
					}
				}
			}
		}
	}
	JOINT lThigh
	{
		OFFSET	4.500466 -6.400484 -1.832696
		CHANNELS 3 Xrotation Zrotation Yrotation
		JOINT lShin
		{
			OFFSET	-1.359117 -18.918689 1.179887
			CHANNELS 3 Xrotation Zrotation Yrotation
			JOINT lFoot
			{
				OFFSET	-0.652380 -17.215186 -0.312137
				CHANNELS 3 Xrotation Yrotation Zrotation
				End Site
				{
					OFFSET 0.000000 0.000000 10.353752
				}
			}
		}
	}
	JOINT rThigh
	{
		OFFSET	-4.500466 -6.400484 -1.832696
		CHANNELS 3 Xrotation Zrotation Yrotation
		JOINT rShin
		{
			OFFSET	1.359117 -18.918689 1.179887
			CHANNELS 3 Xrotation Zrotation Yrotation
			JOINT rFoot
			{
				OFFSET	0.652380 -17.215186 -0.312137
				CHANNELS 3 Xrotation Yrotation Zrotation
				End Site
				{
					OFFSET 0.000000 0.000000 10.353752
				}
			}
		}
	}
}
MOTION
Frames:     17
Frame Time: 0.066667
17.930008 42.509995 13.589964 -175.126999 169.893005 -7.635010 5.166020 5.556640 -3.241190 0.000000 0.000000 0.000000 0.000000 0.000000 0.000000 -9.384770 -2.539060 8.427730 0.000000 0.000000 0.000000 0.000000 0.000000 0.000000 0.000000 0.000000 0.000000 -59.015301 10.394300 72.561203 -61.968498 43.357899 32.590302 -12.784700 -0.140768 2.695330 0.000000 0.000000 0.000000 42.738499 -12.169200 72.175201 64.774200 -36.185501 24.363400 8.884430 5.331310 -5.902430 1.894293 23.212744 16.530939 17.670443 -5.117271 -5.127382 -6.475052 5.251822 -3.706648 2.239589 1.773274 6.103773 3.940131 2.926394 -1.540126 1.477901 6.354529 4.760987 
18.429993 42.559998 13.630033 3.544920 13.847700 168.869995 6.835940 9.316410 -3.671880 0.000000 0.000000 0.000000 0.000000 0.000000 0.000000 -16.962900 -1.484380 11.210900 0.000000 0.000000 0.000000 0.000000 0.000000 0.000000 0.000000 0.000000 0.000000 -50.450600 -12.284100 66.879501 -125.338997 45.624699 73.168404 -14.536300 -14.828400 -24.264700 0.000000 0.000000 0.000000 33.066502 13.407200 72.119202 107.011002 -42.197102 46.006802 22.622000 13.842100 0.986983 -3.380493 29.290071 19.871494 27.311666 -4.024503 -6.815455 -10.657025 6.848674 -2.905682 -1.317661 6.056025 5.193528 6.803580 2.468410 0.613213 1.952474 8.330522 5.277607 
18.949959 42.059998 13.879972 2.792970 16.894501 163.408005 7.988280 12.480500 -5.019530 0.000000 0.000000 0.000000 0.000000 0.000000 0.000000 -12.431600 -0.771484 16.386600 0.000000 0.000000 0.000000 0.000000 0.000000 0.000000 0.000000 0.000000 0.000000 -48.515099 -27.017500 55.958401 -107.950996 49.502499 54.616299 3.363350 -5.011080 -54.137299 0.000000 0.000000 0.000000 41.488899 42.912399 69.519501 132.363007 -40.999001 55.679901 13.406900 22.251699 -42.668999 -5.684301 34.196342 19.889952 34.720329 -4.484656 -5.676445 -13.493421 8.726752 -2.179610 -6.443693 10.145115 3.450198 15.398200 1.364042 3.541276 0.070937 11.425626 6.837080 
18.899948 41.879997 13.840007 2.060550 17.685499 156.436005 7.968750 13.271500 -4.431350 0.000000 0.000000 0.000000 0.000000 0.000000 0.000000 -5.205080 -0.498047 21.171801 0.000000 0.000000 0.000000 0.000000 0.000000 0.000000 0.000000 0.000000 0.000000 -38.265499 -28.249001 67.076698 -111.941002 47.188801 62.796101 -18.009100 -11.669200 -25.879101 0.000000 0.000000 0.000000 59.286098 51.963402 69.915901 89.955498 -41.074699 30.765400 -0.364959 5.760910 -47.194698 -3.282893 35.133118 23.441902 37.129650 -5.138925 -3.213899 -15.479671 11.781134 0.952257 -8.161426 10.249550 3.880127 18.633570 1.200604 4.653728 -0.417888 16.557478 10.068198 
18.449974 41.489998 13.779954 -1.582030 16.015600 149.992996 9.091800 11.601600 -1.873040 0.000000 0.000000 0.000000 0.000000 0.000000 0.000000 -16.191401 2.490230 22.207001 0.000000 0.000000 0.000000 0.000000 0.000000 0.000000 0.000000 0.000000 0.000000 -41.215900 -26.821699 51.963100 -111.142998 45.259899 61.196301 4.590510 0.767246 -41.475800 0.000000 0.000000 0.000000 46.695301 58.025501 83.031502 95.532700 -43.147999 42.804401 12.301900 18.827400 -18.677099 -4.778255 33.703503 25.795130 38.380585 -5.509382 -1.141738 -17.080961 13.922579 2.071406 -11.295845 9.889307 6.737294 17.409546 0.738778 4.659321 0.438022 19.399673 11.721309 
17.840036 41.179996 14.269999 -4.921880 13.076200 146.809006 8.574220 10.507800 -3.289230 0.000000 0.000000 0.000000 0.000000 0.000000 0.000000 -24.550800 3.173830 24.375500 0.000000 0.000000 0.000000 0.000000 0.000000 0.000000 0.000000 0.000000 0.000000 -35.264702 -28.617399 63.715000 -101.833000 41.437599 59.160801 -15.394800 -1.194790 -9.678650 0.000000 0.000000 0.000000 54.435600 51.806999 77.608101 118.509003 -39.948700 44.032501 8.955480 21.550800 -57.726501 -7.698446 32.823124 29.721325 38.816841 -5.930217 0.199964 -16.731201 11.458022 -0.097150 -16.317547 9.130741 9.918380 16.725216 0.816784 2.933923 2.128132 20.647411 11.340403 
17.600035 40.109997 14.130015 -7.441410 10.712900 147.022995 7.011720 9.638670 -6.445310 0.000000 0.000000 0.000000 0.000000 0.000000 0.000000 -23.144501 1.962890 27.324200 0.000000 0.000000 0.000000 0.000000 0.000000 0.000000 0.000000 0.000000 0.000000 -39.008301 -36.941200 67.509300 -124.931000 44.881302 68.002800 -19.257900 -25.166201 -36.728802 0.000000 0.000000 0.000000 54.426899 32.089802 63.787201 98.992203 -36.909698 36.649101 -2.725020 -7.653140 -46.118500 -14.424388 32.530724 26.520954 43.056973 -7.171528 3.288552 -17.686243 9.124121 -1.380326 -22.847015 8.854058 10.111209 22.370975 0.575288 3.849719 -0.102555 18.368864 11.011129 
17.699949 38.479996 13.000007 -8.662110 7.275390 154.307999 4.960940 5.839840 -13.543700 0.000000 0.000000 0.000000 0.000000 0.000000 0.000000 -19.726601 2.412110 30.478500 0.000000 0.000000 0.000000 0.000000 0.000000 0.000000 0.000000 0.000000 0.000000 -40.117401 -35.356400 41.902100 -47.060600 50.916000 13.175200 10.096900 8.106970 -37.270302 0.000000 0.000000 0.000000 43.808800 10.356700 72.570801 74.062103 -40.869400 29.188000 4.616300 13.511200 -14.700000 -27.821539 29.022093 15.353561 54.855846 -8.109013 3.847551 -21.682009 8.385190 -3.811596 -35.020008 6.432078 8.318899 43.112747 -0.087549 6.431633 -11.918093 10.284787 9.327454 
18.580019 37.349998 13.539954 -5.986330 3.652340 165.772003 5.419920 2.373050 -12.548400 0.000000 0.000000 0.000000 0.000000 0.000000 0.000000 -21.005899 -1.796880 24.286800 0.000000 0.000000 0.000000 0.000000 0.000000 0.000000 0.000000 0.000000 0.000000 -34.081001 -15.355800 42.347301 -19.577200 27.799500 1.182720 -6.111270 13.338300 -50.605999 0.000000 0.000000 0.000000 36.723801 1.603820 52.316399 48.860600 -24.209000 25.315001 -4.201120 19.330000 -18.092800 -34.784561 22.216394 9.039712 61.703941 -5.120986 -0.779493 -25.041332 8.884601 -5.660221 -41.560513 0.243928 1.973784 58.748322 -2.084755 6.778827 -22.335003 6.745078 7.485161 
19.699984 37.819996 12.520006 -6.835940 5.517580 -168.201996 6.611330 -0.312494 -4.609520 0.000000 0.000000 0.000000 0.000000 0.000000 0.000000 -19.619101 -7.099610 -7.745350 0.000000 0.000000 0.000000 0.000000 0.000000 0.000000 0.000000 0.000000 0.000000 -21.150200 14.809500 20.191401 -23.450800 30.524300 6.415090 -0.950826 11.587600 -68.335297 0.000000 0.000000 0.000000 9.380130 18.309000 28.101801 42.776501 -29.628700 14.668400 -19.729200 21.722700 -29.438900 -40.093815 14.315145 -2.017164 51.469501 -0.746409 -8.415343 -17.613949 4.343539 -8.955947 -37.736340 -4.285846 -6.749168 59.391323 -0.234329 0.920346 -25.975061 -2.681892 6.149077 
16.780018 39.029999 13.639972 -5.644530 10.341800 -120.535004 6.494140 -2.275390 3.486330 0.000000 0.000000 0.000000 0.000000 0.000000 0.000000 -8.623050 -8.144530 -42.636700 0.000000 0.000000 0.000000 0.000000 0.000000 0.000000 0.000000 0.000000 0.000000 9.418490 14.460500 1.954090 -50.989300 47.558800 23.805300 10.562600 -8.710850 -28.325899 0.000000 0.000000 0.000000 -30.275700 21.899799 -13.869600 48.121498 -40.651699 16.091600 -27.271700 15.201200 -31.313700 -37.481064 5.595762 -9.338952 22.002645 -4.314530 0.755975 -3.977377 3.160036 -13.054386 -26.788065 -2.077799 -12.305940 46.650589 0.507033 -2.745903 -12.285756 -0.981064 6.749810 
15.589957 41.150002 15.589998 5.722660 8.916020 -49.217201 3.916020 -1.308590 6.279300 0.000000 0.000000 0.000000 0.000000 0.000000 0.000000 -5.859380 -5.771480 0.205078 0.000000 0.000000 0.000000 0.000000 0.000000 0.000000 0.000000 0.000000 0.000000 42.922600 2.991710 -17.962400 -79.472603 54.583099 43.660000 13.093900 -8.693760 -28.746901 0.000000 0.000000 0.000000 -46.260399 13.482500 -29.563900 69.311203 -46.570999 27.002399 -32.741901 4.910220 -38.527000 -30.794085 -1.612164 9.931654 14.374961 -4.890138 3.008089 -0.882035 1.031894 -6.163979 -19.283337 -1.209891 -14.311129 31.400648 -2.343322 1.613487 11.669790 0.058434 2.972495 
17.639999 43.179996 16.019989 2.851560 0.371094 39.414101 14.130900 -2.705080 6.826170 0.000000 0.000000 0.000000 0.000000 0.000000 0.000000 -10.087900 0.664063 47.939602 0.000000 0.000000 0.000000 0.000000 0.000000 0.000000 0.000000 0.000000 0.000000 44.775002 19.392599 -33.995998 -73.059303 58.131100 34.224499 19.029301 -6.010780 -27.307501 0.000000 0.000000 0.000000 -42.150600 3.233820 -51.955101 75.992203 -51.957600 24.918800 -38.429501 -3.557200 -43.397301 -21.774992 2.792109 17.533369 17.155821 -6.748987 0.410658 18.223360 -1.348397 -1.844031 -10.523309 -3.619529 -19.673229 18.495071 -1.474492 4.245375 30.329151 -4.888990 2.204936 
18.200035 44.919998 13.510033 6.914060 1.142580 124.814003 10.127000 -2.636720 10.282800 0.000000 0.000000 0.000000 0.000000 0.000000 0.000000 -4.082030 -5.312500 24.852600 0.000000 0.000000 0.000000 0.000000 0.000000 0.000000 0.000000 0.000000 0.000000 45.470402 8.734370 -32.924599 -60.433201 59.443100 24.347700 17.738701 -0.890106 -28.760900 0.000000 0.000000 0.000000 -48.488098 1.346090 -57.408501 80.083298 -47.955200 31.093000 -38.139801 -5.151200 -49.254299 -17.332197 3.378033 15.545331 15.834470 -5.862428 0.706164 19.259205 13.601037 1.214862 -6.822886 -3.024282 -17.402996 18.363409 -2.020550 3.686786 35.178059 -2.777433 3.693441 
15.189991 45.650002 12.459954 3.134770 1.748050 -153.516006 7.900390 -3.603520 5.477900 0.000000 0.000000 0.000000 0.000000 0.000000 0.000000 -2.832030 -1.162110 -15.830300 0.000000 0.000000 0.000000 0.000000 0.000000 0.000000 0.000000 0.000000 0.000000 52.556099 2.771360 -38.770401 -63.091499 54.526299 27.875900 9.527580 -3.780660 -30.112101 0.000000 0.000000 0.000000 -47.018398 11.761100 -53.848999 80.929398 -45.735100 25.891800 -35.390800 -4.270120 -47.774200 -18.960445 5.417937 10.180536 16.394119 -4.609270 5.350859 14.599193 4.116304 0.995887 -7.349416 0.332538 -13.326984 17.022633 0.022779 3.964592 32.750507 -4.606410 5.280274 
17.090010 45.919994 14.610015 0.175781 0.341797 -3.066350 7.216800 3.427730 3.964840 0.000000 0.000000 0.000000 0.000000 0.000000 0.000000 -6.318360 -1.416020 -0.703125 0.000000 0.000000 0.000000 0.000000 0.000000 0.000000 0.000000 0.000000 0.000000 61.147499 6.037880 -34.367802 -72.108597 59.578602 34.590900 19.183399 -0.636302 -30.265200 0.000000 0.000000 0.000000 -49.337399 9.203320 -53.992500 80.056396 -47.737999 27.123301 -35.834301 -9.482650 -43.830700 -22.589148 -0.908310 3.875364 19.952991 -4.631703 -2.869740 15.519429 7.728616 -1.641713 -9.290484 -2.535561 -14.038730 14.436556 -1.402676 4.600947 26.613201 9.635724 9.579558 
21.089975 45.629997 15.410049 -0.664063 1.210940 58.886700 5.507810 -1.328130 7.998050 0.000000 0.000000 0.000000 0.000000 0.000000 0.000000 -3.251950 3.837890 39.570999 0.000000 0.000000 0.000000 0.000000 0.000000 0.000000 0.000000 0.000000 0.000000 47.505001 18.931601 -18.240900 -62.739799 58.888901 28.903999 23.928400 3.653240 -32.658100 0.000000 0.000000 0.000000 -42.808399 3.350060 -47.442501 82.278702 -51.474499 30.613400 -36.035000 -1.487710 -42.678799 -22.184601 3.290291 5.742467 28.150099 -4.873884 -6.151715 19.770632 6.202751 -4.637070 -8.553223 -0.537364 -4.971355 14.214227 -0.283519 1.309797 33.052834 11.075059 5.345998 
